<svg version="1.1" id="Layer_1" xmlns="http://www.w3.org/2000/svg" xmlns:xlink="http://www.w3.org/1999/xlink" x="0" y="0" viewBox="0 0 300 45" xml:space="preserve"><style>.st0{fill:#2d69ae}.st1{fill:#294993}.st2,.st3,.st4{clip-path:url(#SVGID_2_);fill:#f5d361}.st3,.st4{clip-path:url(#SVGID_4_)}.st4{clip-path:url(#SVGID_6_)}</style><path class="st0" d="M73.29 25.85l.96-.58c.68 1.24 1.45 1.86 2.34 1.86.38 0 .73-.09 1.07-.27.33-.18.59-.41.76-.71.17-.3.26-.61.26-.94 0-.38-.13-.75-.38-1.11-.35-.5-1-1.11-1.93-1.81-.94-.71-1.53-1.22-1.76-1.54-.4-.53-.6-1.11-.6-1.73 0-.49.12-.94.35-1.34.24-.4.57-.72.99-.96.43-.23.89-.35 1.39-.35.53 0 1.03.13 1.49.4.46.26.95.75 1.47 1.45l-.92.7c-.42-.56-.79-.93-1.09-1.11-.3-.18-.63-.27-.98-.27-.46 0-.83.14-1.12.41-.29.28-.43.62-.43 1.02 0 .25.05.48.15.71.1.23.29.48.56.75.15.14.63.52 1.46 1.13.98.72 1.65 1.36 2.01 1.93.36.56.54 1.13.54 1.7 0 .82-.31 1.53-.93 2.13-.62.6-1.38.91-2.27.91-.69 0-1.31-.18-1.86-.55-.54-.36-1.06-.98-1.53-1.83zM81.94 16.5h1.07v3.1h1.7v.93h-1.7v7.42h-1.07v-7.42h-1.47v-.93h1.47v-3.1zM93.86 19.6v8.35H92.8v-1.43c-.45.55-.96.96-1.52 1.24s-1.17.41-1.84.41c-1.18 0-2.19-.43-3.03-1.28-.84-.86-1.25-1.9-1.25-3.13 0-1.2.42-2.23 1.27-3.08.84-.85 1.86-1.28 3.05-1.28.69 0 1.31.15 1.86.44.55.29 1.04.73 1.46 1.31V19.6h1.06zm-4.29.82c-.6 0-1.15.15-1.66.44-.51.29-.91.71-1.21 1.24-.3.53-.45 1.09-.45 1.69 0 .59.15 1.15.45 1.69.3.54.71.95 1.21 1.25.51.3 1.05.45 1.64.45.59 0 1.14-.15 1.67-.44.53-.3.93-.7 1.21-1.2.28-.51.42-1.08.42-1.71 0-.97-.32-1.77-.95-2.42-.62-.66-1.4-.99-2.33-.99zM96.74 16.5h1.07v3.1h1.7v.93h-1.7v7.42h-1.07v-7.42h-1.47v-.93h1.47v-3.1zM107.38 25.18l.91.48c-.3.58-.64 1.05-1.03 1.41-.39.36-.83.63-1.31.82-.49.19-1.04.28-1.65.28-1.36 0-2.43-.45-3.19-1.34-.77-.89-1.15-1.9-1.15-3.03 0-1.06.33-2 .98-2.83.82-1.05 1.93-1.58 3.31-1.58 1.42 0 2.56.54 3.41 1.62.6.76.91 1.71.92 2.85h-7.51c.02.97.33 1.76.93 2.38.6.62 1.34.93 2.22.93.42 0 .84-.07 1.24-.22s.74-.34 1.03-.59c.25-.24.56-.64.89-1.18zm0-2.25c-.14-.57-.35-1.03-.63-1.37a2.98 2.98 0 00-1.09-.83c-.45-.21-.92-.31-1.42-.31-.82 0-1.52.26-2.11.79-.43.38-.76.96-.98 1.73h6.23zM119.18 19.39c1.29 0 2.35.47 3.2 1.4.77.85 1.15 1.85 1.15 3.02s-.41 2.19-1.22 3.06c-.81.87-1.86 1.31-3.13 1.31-1.28 0-2.33-.44-3.14-1.31-.81-.87-1.22-1.89-1.22-3.06 0-1.16.38-2.16 1.15-3.01.85-.95 1.91-1.41 3.21-1.41zm-.01 1.05c-.89 0-1.66.33-2.3.99-.64.66-.96 1.46-.96 2.39 0 .6.15 1.17.44 1.69.29.52.69.92 1.19 1.21.5.28 1.04.43 1.64.43.6 0 1.14-.14 1.64-.43.5-.28.89-.69 1.19-1.21.29-.52.44-1.08.44-1.69 0-.94-.32-1.73-.97-2.39s-1.42-.99-2.31-.99zM128.16 16.38v1.05c-.39-.17-.73-.25-1.01-.25-.21 0-.38.04-.52.13-.14.08-.23.18-.26.29-.04.11-.05.4-.05.88v1.13h1.74v.93h-1.74l-.01 7.42h-1.07v-7.42h-1.1v-.94h1.1v-1.3c0-.6.05-1.03.16-1.28.11-.26.3-.46.56-.62.26-.16.58-.23.96-.23.34-.01.76.07 1.24.21zM145.01 18.76l-.89.68a4.829 4.829 0 00-1.77-1.45c-.69-.33-1.44-.49-2.27-.49-.9 0-1.73.22-2.5.65-.77.43-1.36 1.01-1.78 1.74-.42.73-.63 1.55-.63 2.46 0 1.38.47 2.52 1.42 3.44.94.92 2.13 1.38 3.57 1.38 1.58 0 2.9-.62 3.97-1.86l.89.68c-.56.72-1.26 1.27-2.11 1.66-.84.39-1.78.59-2.82.59-1.97 0-3.53-.66-4.67-1.97-.96-1.11-1.43-2.45-1.43-4.02 0-1.65.58-3.04 1.74-4.17 1.16-1.13 2.61-1.69 4.35-1.69 1.05 0 2 .21 2.85.63.84.4 1.54.98 2.08 1.74zM154.32 19.6v8.35h-1.06v-1.43c-.45.55-.96.96-1.52 1.24s-1.17.41-1.84.41c-1.18 0-2.19-.43-3.03-1.28-.84-.86-1.25-1.9-1.25-3.13 0-1.2.42-2.23 1.27-3.08.84-.85 1.86-1.28 3.05-1.28.69 0 1.31.15 1.86.44.55.29 1.04.73 1.46 1.31V19.6h1.06zm-4.3.82c-.6 0-1.15.15-1.66.44-.51.29-.91.71-1.21 1.24-.3.53-.45 1.09-.45 1.69 0 .59.15 1.15.45 1.69.3.54.71.95 1.21 1.25.51.3 1.05.45 1.64.45.59 0 1.14-.15 1.67-.44.53-.3.93-.7 1.21-1.2a3.5 3.5 0 00.43-1.71c0-.97-.32-1.77-.95-2.42-.62-.66-1.41-.99-2.34-.99zM156.41 16.38h1.07v11.57h-1.07V16.38zM160.25 16.16c.24 0 .45.09.63.26.17.17.26.38.26.63 0 .24-.09.45-.26.62a.86.86 0 01-.63.26c-.24 0-.45-.09-.62-.26a.854.854 0 01-.26-.62c0-.25.09-.45.26-.63.17-.17.38-.26.62-.26zm-.53 3.44h1.07v8.35h-1.07V19.6zM166.62 16.38v1.05c-.39-.17-.73-.25-1.01-.25-.21 0-.38.04-.52.13-.14.08-.23.18-.26.29s-.05.4-.05.88v1.13h1.74v.93h-1.74l-.01 7.42h-1.07v-7.42h-1.1v-.94h1.1v-1.3c0-.6.05-1.03.17-1.28.11-.26.3-.46.56-.62.26-.16.58-.23.96-.23.33-.01.74.07 1.23.21zM171.59 19.39c1.29 0 2.35.47 3.2 1.4.77.85 1.15 1.85 1.15 3.02s-.41 2.19-1.22 3.06c-.81.87-1.86 1.31-3.13 1.31-1.28 0-2.33-.44-3.14-1.31-.81-.87-1.22-1.89-1.22-3.06 0-1.16.38-2.16 1.15-3.01.85-.95 1.92-1.41 3.21-1.41zm0 1.05c-.89 0-1.66.33-2.3.99-.64.66-.96 1.46-.96 2.39 0 .6.15 1.17.44 1.69.29.52.69.92 1.19 1.21.5.28 1.04.43 1.64.43.59 0 1.14-.14 1.64-.43.5-.28.89-.69 1.19-1.21.29-.52.44-1.08.44-1.69 0-.94-.32-1.73-.97-2.39-.66-.66-1.42-.99-2.31-.99zM177.05 19.6h1.1v1.22c.33-.48.67-.84 1.04-1.08.36-.24.74-.36 1.13-.36.3 0 .61.09.95.28l-.56.91c-.23-.1-.41-.15-.57-.15-.36 0-.7.15-1.04.44-.33.29-.59.75-.76 1.37-.13.48-.2 1.44-.2 2.89v2.82h-1.1V19.6zM182.34 19.6h1.07v1.5c.43-.57.91-1 1.43-1.29.52-.28 1.09-.43 1.7-.43.62 0 1.18.16 1.66.48.48.32.84.74 1.07 1.28.23.54.34 1.37.34 2.51v4.3h-1.07v-3.98c0-.96-.04-1.6-.12-1.93-.12-.55-.36-.97-.72-1.25-.35-.28-.81-.42-1.38-.42-.65 0-1.23.22-1.75.64-.51.43-.85.96-1.02 1.6-.1.41-.15 1.17-.15 2.27v3.06h-1.07V19.6zM191.83 16.16c.24 0 .45.09.63.26.17.17.26.38.26.63 0 .24-.09.45-.26.62a.86.86 0 01-.63.26c-.24 0-.45-.09-.62-.26a.854.854 0 01-.26-.62c0-.25.09-.45.26-.63.17-.17.38-.26.62-.26zm-.54 3.44h1.07v8.35h-1.07V19.6zM202.45 19.6v8.35h-1.06v-1.43c-.45.55-.95.96-1.51 1.24s-1.17.41-1.84.41c-1.18 0-2.19-.43-3.03-1.28-.84-.86-1.25-1.9-1.25-3.13 0-1.2.42-2.23 1.27-3.08.84-.85 1.86-1.28 3.05-1.28.69 0 1.31.15 1.86.44.55.29 1.04.73 1.46 1.31V19.6h1.05zm-4.3.82c-.6 0-1.15.15-1.66.44-.51.29-.91.71-1.21 1.24-.3.53-.45 1.09-.45 1.69 0 .59.15 1.15.45 1.69.3.54.71.95 1.21 1.25.51.3 1.05.45 1.64.45.59 0 1.14-.15 1.67-.44.53-.3.93-.7 1.21-1.2a3.5 3.5 0 00.43-1.71c0-.97-.32-1.77-.95-2.42-.62-.66-1.41-.99-2.34-.99zM74.38 31.07h2.54c1.64 0 2.86.2 3.66.61.8.41 1.45 1.07 1.97 1.98.52.92.77 1.98.77 3.21 0 .87-.14 1.67-.43 2.4s-.69 1.33-1.2 1.81-1.06.81-1.65 1c-.59.18-1.62.28-3.08.28h-2.58V31.07zm2.14 2.07v7.12h1c.98 0 1.69-.11 2.14-.34.44-.23.8-.6 1.09-1.14.28-.53.42-1.19.42-1.97 0-1.2-.34-2.13-1.01-2.79-.6-.59-1.57-.89-2.91-.89h-.73zM92.72 38.78h-6.73c.1.59.36 1.07.78 1.41.42.35.96.53 1.62.53.78 0 1.46-.27 2.02-.82l1.76.83c-.44.62-.97 1.09-1.58 1.38s-1.34.45-2.19.45c-1.31 0-2.38-.41-3.2-1.24s-1.24-1.86-1.24-3.1c0-1.27.41-2.33 1.23-3.17.82-.84 1.85-1.26 3.09-1.26 1.31 0 2.38.42 3.21 1.26.82.84 1.24 1.95 1.24 3.33l-.01.4zm-2.09-1.65c-.14-.47-.41-.84-.82-1.14-.41-.29-.88-.44-1.42-.44-.58 0-1.1.16-1.54.49-.28.21-.53.57-.77 1.08h4.55zM96.03 34v.92c.38-.38.79-.66 1.23-.85.44-.19.91-.28 1.41-.28 1.09 0 2.02.41 2.78 1.24.76.82 1.14 1.88 1.14 3.17 0 1.24-.39 2.28-1.18 3.12-.79.84-1.72 1.25-2.8 1.25-.48 0-.93-.09-1.34-.26-.41-.17-.83-.45-1.24-.84v3.94h-2.08V34h2.08zm2.2 1.72c-.66 0-1.21.23-1.64.68-.43.45-.65 1.04-.65 1.76 0 .74.22 1.34.65 1.8.43.46.98.69 1.64.69.64 0 1.18-.23 1.62-.7.44-.47.66-1.06.66-1.78s-.22-1.3-.64-1.76c-.44-.46-.99-.69-1.64-.69zM110.01 34h2.09v8.35h-2.09v-.88c-.41.39-.82.67-1.23.84-.41.17-.86.26-1.34.26-1.08 0-2.01-.42-2.8-1.25-.79-.84-1.18-1.88-1.18-3.12 0-1.29.38-2.35 1.14-3.17.76-.82 1.69-1.24 2.77-1.24.5 0 .97.09 1.41.28.44.19.85.47 1.22.85V34zm-2.2 1.72c-.65 0-1.19.23-1.61.69-.43.46-.64 1.05-.64 1.76 0 .72.22 1.31.65 1.78.44.47.97.7 1.61.7.66 0 1.2-.23 1.64-.69.43-.46.65-1.06.65-1.8 0-.73-.22-1.31-.65-1.76-.44-.45-.99-.68-1.65-.68zM114.2 34h1.8v1.05c.19-.41.45-.73.78-.94.32-.21.68-.32 1.06-.32.27 0 .55.07.85.21l-.65 1.8c-.25-.12-.45-.18-.61-.18-.32 0-.59.2-.82.6-.22.4-.33 1.18-.33 2.35l.01.41v3.38h-2.08V34zM120.44 30.93h2.09V34h1.24v1.8h-1.24v6.54h-2.09V35.8h-1.07V34h1.07v-3.07zM125.04 34h2.09v.96c.36-.39.76-.69 1.19-.88.44-.19.91-.29 1.43-.29.52 0 .99.13 1.41.38.42.26.76.63 1.01 1.12.33-.49.74-.86 1.22-1.12.48-.26 1.01-.38 1.59-.38.59 0 1.12.14 1.57.41.45.28.77.64.97 1.08.2.45.3 1.17.3 2.17v4.9h-2.11v-4.23c0-.95-.12-1.59-.35-1.92-.24-.33-.59-.5-1.06-.5-.36 0-.68.1-.96.31-.28.21-.5.49-.63.85-.14.36-.21.94-.21 1.74v3.77h-2.11v-4.04c0-.75-.06-1.29-.17-1.62-.11-.34-.28-.58-.5-.75-.22-.16-.49-.25-.8-.25-.35 0-.67.1-.95.31s-.5.5-.64.87-.21.96-.21 1.76v3.71h-2.09V34zM147.72 38.78h-6.73c.1.59.36 1.07.78 1.41.42.35.96.53 1.62.53.78 0 1.46-.27 2.02-.82l1.76.83c-.44.62-.97 1.09-1.58 1.38s-1.34.45-2.19.45c-1.31 0-2.38-.41-3.2-1.24-.82-.83-1.24-1.86-1.24-3.1 0-1.27.41-2.33 1.23-3.17.82-.84 1.85-1.26 3.09-1.26 1.31 0 2.38.42 3.21 1.26.82.84 1.24 1.95 1.24 3.33l-.01.4zm-2.1-1.65c-.14-.47-.41-.84-.82-1.14-.41-.29-.88-.44-1.42-.44-.58 0-1.1.16-1.54.49-.28.21-.53.57-.77 1.08h4.55zM148.94 34h2.09v.86c.48-.4.91-.68 1.29-.83.39-.16.78-.24 1.18-.24.83 0 1.53.29 2.11.87.49.49.73 1.22.73 2.18v5.52h-2.07V38.7c0-1-.04-1.66-.13-1.98-.09-.33-.25-.58-.47-.75-.22-.17-.5-.26-.82-.26-.42 0-.79.14-1.09.43-.3.28-.51.68-.63 1.18-.06.26-.09.83-.09 1.69v3.35h-2.09V34zM158.47 30.93h2.09V34h1.24v1.8h-1.24v6.54h-2.09V35.8h-1.08V34h1.08v-3.07zM172.5 33.79c.79 0 1.53.2 2.22.59.69.39 1.23.93 1.62 1.6s.58 1.4.58 2.19-.2 1.52-.59 2.21-.92 1.22-1.6 1.61c-.68.39-1.42.58-2.23.58-1.2 0-2.22-.43-3.06-1.28-.85-.85-1.27-1.89-1.27-3.1 0-1.3.48-2.39 1.43-3.26.85-.76 1.81-1.14 2.9-1.14zm.03 1.97c-.65 0-1.19.23-1.63.68-.43.45-.65 1.03-.65 1.74 0 .73.21 1.32.64 1.76.43.45.97.68 1.63.68.66 0 1.2-.23 1.64-.68.44-.46.65-1.04.65-1.76s-.21-1.3-.64-1.75c-.42-.45-.97-.67-1.64-.67zM177.8 34h.74c.01-1.09.02-1.74.05-1.94.06-.46.25-.82.58-1.09.33-.27.8-.4 1.4-.4.43 0 .93.1 1.47.3v1.6c-.3-.09-.55-.13-.74-.13-.25 0-.42.05-.54.15-.08.08-.12.24-.12.48V34h1.33v1.77h-1.33v6.58h-2.1v-6.58h-.74V34zM190.48 31.07h2.09l2.62 7.87 2.64-7.87h2.09l1.89 11.29h-2.08l-1.21-7.13-2.4 7.13h-1.89l-2.38-7.13-1.24 7.13h-2.09l1.96-11.29zM206.75 33.79c.79 0 1.53.2 2.22.59.69.39 1.23.93 1.62 1.6.39.68.58 1.4.58 2.19s-.2 1.52-.59 2.21-.92 1.22-1.6 1.61c-.68.39-1.42.58-2.23.58-1.2 0-2.22-.43-3.06-1.28-.85-.85-1.27-1.89-1.27-3.1 0-1.3.48-2.39 1.43-3.26.84-.76 1.81-1.14 2.9-1.14zm.03 1.97c-.65 0-1.19.23-1.63.68-.43.45-.65 1.03-.65 1.74 0 .73.21 1.32.64 1.76.43.45.97.68 1.63.68.66 0 1.2-.23 1.64-.68.44-.46.65-1.04.65-1.76s-.21-1.3-.64-1.75c-.43-.45-.97-.67-1.64-.67zM212.98 30.93h2.09V34h1.24v1.8h-1.24v6.54h-2.09V35.8h-1.07V34h1.07v-3.07zM221.52 33.79c.79 0 1.53.2 2.22.59.69.39 1.23.93 1.62 1.6s.58 1.4.58 2.19-.2 1.52-.59 2.21-.92 1.22-1.6 1.61c-.68.39-1.42.58-2.23.58-1.2 0-2.22-.43-3.06-1.28-.85-.85-1.27-1.89-1.27-3.1 0-1.3.48-2.39 1.43-3.26.84-.76 1.81-1.14 2.9-1.14zm.03 1.97c-.65 0-1.19.23-1.63.68-.43.45-.65 1.03-.65 1.74 0 .73.21 1.32.64 1.76.43.45.97.68 1.63.68.66 0 1.2-.23 1.64-.68.44-.46.65-1.04.65-1.76s-.21-1.3-.64-1.75c-.43-.45-.97-.67-1.64-.67zM227.01 34h1.8v1.05c.19-.41.45-.73.77-.94.32-.21.68-.32 1.06-.32.27 0 .55.07.85.21l-.65 1.8c-.25-.12-.45-.18-.61-.18-.32 0-.59.2-.82.6-.22.4-.33 1.18-.33 2.35l.01.41v3.38h-2.08V34zM237.86 31.07h2.21l2.84 8.02 2.88-8.02H248l-4.07 11.29h-2.07l-4-11.29zM255.81 38.78h-6.73c.1.59.36 1.07.78 1.41.42.35.96.53 1.62.53.78 0 1.45-.27 2.02-.82l1.76.83c-.44.62-.97 1.09-1.58 1.38-.61.3-1.34.45-2.19.45-1.31 0-2.38-.41-3.2-1.24-.82-.83-1.24-1.86-1.24-3.1 0-1.27.41-2.33 1.23-3.17.82-.84 1.85-1.26 3.09-1.26 1.31 0 2.38.42 3.21 1.26.82.84 1.23 1.95 1.23 3.33v.4zm-2.09-1.65c-.14-.47-.41-.84-.82-1.14-.41-.29-.88-.44-1.42-.44-.58 0-1.1.16-1.54.49-.28.21-.53.57-.77 1.08h4.55zM257.04 30.78h2.08v4.07c.41-.35.82-.62 1.24-.79.41-.18.83-.27 1.26-.27.83 0 1.53.29 2.1.86.49.5.73 1.23.73 2.19v5.52h-2.06V38.7c0-.97-.05-1.62-.14-1.96-.09-.34-.25-.6-.47-.77-.22-.17-.5-.25-.83-.25-.42 0-.79.14-1.09.42-.3.28-.52.67-.63 1.15-.06.25-.09.82-.09 1.72v3.35h-2.08V30.78zM267.44 30.57c.37 0 .68.13.94.4.26.27.39.59.39.97 0 .37-.13.69-.39.96-.26.26-.57.4-.93.4-.37 0-.69-.13-.95-.4a1.35 1.35 0 01-.39-.98c0-.37.13-.68.39-.94.26-.28.57-.41.94-.41zM266.39 34h2.09v8.35h-2.09V34zM279.03 35.69l-1.74.96c-.33-.34-.65-.58-.97-.71a3 3 0 00-1.13-.2c-.78 0-1.42.23-1.9.7s-.73 1.07-.73 1.8c0 .71.23 1.29.7 1.74.47.45 1.08.67 1.84.67.94 0 1.67-.32 2.19-.96l1.65 1.13c-.9 1.16-2.16 1.75-3.79 1.75-1.47 0-2.62-.44-3.45-1.3-.83-.87-1.25-1.89-1.25-3.05 0-.81.2-1.55.61-2.23.4-.68.97-1.21 1.69-1.6.72-.39 1.53-.58 2.43-.58.83 0 1.57.16 2.23.5.66.3 1.2.77 1.62 1.38zM280.53 30.78h2.09v11.57h-2.09V30.78zM292.42 38.78h-6.73c.1.59.36 1.07.78 1.41.42.35.96.53 1.62.53.78 0 1.45-.27 2.02-.82l1.76.83c-.44.62-.97 1.09-1.58 1.38-.61.3-1.34.45-2.19.45-1.31 0-2.38-.41-3.2-1.24-.82-.83-1.24-1.86-1.24-3.1 0-1.27.41-2.33 1.23-3.17.82-.84 1.85-1.26 3.09-1.26 1.31 0 2.38.42 3.21 1.26.82.84 1.23 1.95 1.23 3.33v.4zm-2.09-1.65c-.14-.47-.41-.84-.82-1.14-.41-.29-.88-.44-1.42-.44-.58 0-1.1.16-1.54.49-.28.21-.53.57-.77 1.08h4.55zM298.76 35.17l-1.3 1.3c-.53-.52-1-.78-1.43-.78-.24 0-.42.05-.55.15-.13.1-.2.22-.2.37 0 .11.04.22.13.31.08.09.29.22.63.39l.77.38c.81.4 1.36.81 1.66 1.22.3.41.45.9.45 1.46 0 .74-.27 1.36-.82 1.86-.55.5-1.28.74-2.19.74-1.22 0-2.19-.48-2.92-1.43l1.29-1.4c.25.29.53.52.86.69.33.18.62.27.88.27.28 0 .5-.07.67-.2.17-.13.25-.29.25-.46 0-.32-.3-.64-.91-.94l-.71-.35c-1.35-.68-2.03-1.53-2.03-2.55 0-.66.26-1.22.76-1.69.51-.47 1.16-.7 1.95-.7.54 0 1.05.12 1.53.36s.89.55 1.23 1z"/><g><path class="st1" d="M4.06 33.94L.21 33.8l4.01-.19-.16.33zM5.7 31.14L3.33 31l2.53-.21-.16.35zM7.15 28.36l-4.11-.23 4.49-.15-.38.38zM8.49 26.13l-2.94-.21 3.2-.2-.26.41zM10.05 23.28l-4.53-.1 4.77-.2-.24.3zM11.12 21.54l-2.68-.13 2.88-.18-.2.31zM58.14 26.02l-2.15-.15 2.34-.15-.19.3zM59.61 24.12L57.57 24l2.15-.24-.11.36zM61.37 21.47l-1.64-.09 1.77-.15-.13.24zM42.02 21.56l-2.58-.13 2.78-.2-.2.33zM41.43 23.2l-2.59-.14 2.78-.21-.19.35zM24.78 33.9l-2.66-.14 2.78-.19-.12.33zM26.15 31.1l-1.7-.14 1.81-.21-.11.35zM28 28.37l-2.32-.22 2.53-.15-.21.37zM28.93 26.09l-1.88-.19 2.05-.18-.17.37zM30.81 23.3l-2.96-.13 3.11-.24-.15.37zM45.51 33.87l-2.02-.12 2.11-.17-.09.29zM46.73 31.12l-1.5-.14 1.6-.21-.1.35zM48.26 28.41l-1.91-.25 2.08-.17-.17.42zM48.8 26.04l-1.52-.14 1.66-.14-.14.28zM50.12 23.26l-2.01-.12 2.12-.22-.11.34z"/><path class="st1" d="M13.11 34.7c.61 0 1.04-.5 1.54-1.3 1.06-1.7 2.2-3.8 2.2-3.8s.85-1.61 1.74-3.1c.55-.92.89-2.07-.18-2.07H16.3l-5.6 10.2c-.01 0 1.39.07 2.41.07zM1.59 37.71l9.78-16.98h12.06c1.9 0 4.55 2.24 2.17 6.04-.13.2-4.88 8.63-4.88 8.63s-1 2.24-4.81 2.31c-4.51.08-14.32 0-14.32 0zM36.37 32.81l-5.16 4.79.13-5.11-2.79 5.3h-6.88l9.78-17.12h6.39l-.16 4.98 4.45-4.98h6.39l-7.46 17.12h-7.27l2.58-4.98zM50.38 37.79H43.5l7.25-17.12h5.97L53.6 30.84l7.83-10.17h6.82L56.69 37.79h-6.31z"/><defs><path id="SVGID_1_" d="M13.11 34.7c.61 0 1.04-.5 1.54-1.3 1.06-1.7 2.2-3.8 2.2-3.8s.85-1.61 1.74-3.1c.55-.92.89-2.07-.18-2.07H16.3l-5.6 10.2c-.01 0 1.39.07 2.41.07zM1.59 37.71l9.78-16.98h12.06c1.9 0 4.55 2.24 2.17 6.04-.13.2-4.88 8.63-4.88 8.63s-1 2.24-4.81 2.31c-4.51.08-14.32 0-14.32 0z"/></defs><clipPath id="SVGID_2_"><use xlink:href="#SVGID_1_" overflow="visible"/></clipPath><path class="st2" d="M4.19 30.79H24.2v-.7H4.19v.7zM2.94 33.6h19.7v-.7H2.94v.7zM9.66 21.26h17.73v-.19H9.66v.19zM9.28 22.11H27.6v-.19H9.28v.19zM8.66 22.96H27.3v-.21H8.66v.21zM8.57 23.81h18.84v-.23H8.57v.23zM5.91 24.67h21.16v-.28H5.91v.28zM7.59 25.68h19.16v-.3H7.59v.3zM6.45 26.84h19.82v-.37H6.45v.37zM6.09 28h19.5v-.42H6.09V28zM5.39 29.16h19.65v-.47H5.39v.47z"/><defs><path id="SVGID_3_" d="M36.37 32.81l-5.16 4.79.13-5.11-2.79 5.3h-6.88l9.78-17.12h6.39l-.16 4.98 4.45-4.98h6.39l-7.46 17.12h-7.27l2.58-4.98z"/></defs><clipPath id="SVGID_4_"><use xlink:href="#SVGID_3_" overflow="visible"/></clipPath><path class="st3" d="M25.23 30.79h19.34v-.7H25.23v.7zM23.44 33.6h20.24v-.7H23.44v.7zM30.7 21.26h17.89v-.19H30.7v.19zM30.31 22.11h18.32v-.19H30.31v.19zM29.7 22.96h18.64v-.21H29.7v.21zM28.96 23.81h18.83v-.23H28.96v.23zM26.95 24.67h21.16v-.28H26.95v.28zM28.18 25.76h18.86v-.3H28.18v.3zM27.48 26.91h19.05v-.37H27.48v.37zM26.9 28.03h19.29v-.42H26.9v.42zM26.2 29.16h19.23v-.47H26.2v.47z"/><defs><path id="SVGID_5_" d="M50.38 37.79H43.5l7.25-17.12h5.97L53.6 30.84l7.83-10.17h6.82L56.69 37.79h-6.31z"/></defs><clipPath id="SVGID_6_"><use xlink:href="#SVGID_5_" overflow="visible"/></clipPath><path class="st4" d="M44.5 30.79h19.34v-.7H44.5v.7zM43.24 33.6h19.71v-.7H43.24v.7zM49.97 21.26H69.2v-.19H49.97v.19zM49.58 22.11H67.9v-.19H49.58v.19zM48.97 22.96h18.64v-.21H48.97v.21zM48.88 23.81h18.83v-.23H48.88v.23zM46.22 24.67h21.16v-.28H46.22v.28zM47.9 25.76h18.41v-.3H47.9v.3zM46.75 26.91H65.8v-.37H46.75v.37zM46.39 28.03h19.07v-.42H46.39v.42zM45.69 29.16H64.7v-.47H45.69v.47z"/><defs><path id="SVGID_7_" d="M.21 16.67h68.43v25.36H.21z"/></defs><clipPath id="SVGID_8_"><use xlink:href="#SVGID_7_" overflow="visible"/></clipPath><path d="M13.11 34.7c.61 0 1.04-.5 1.54-1.3 1.06-1.7 2.2-3.8 2.2-3.8s.85-1.61 1.74-3.1c.55-.92.89-2.07-.18-2.07H16.3l-5.6 10.2c-.01 0 1.39.07 2.41.07h0zM1.59 37.71l9.78-16.98h12.06c1.9 0 4.55 2.24 2.17 6.04-.13.2-4.88 8.63-4.88 8.63s-1 2.24-4.81 2.31c-4.51.08-14.32 0-14.32 0h0zm34.78-4.9l-5.16 4.79.13-5.11-2.8 5.3h-6.88l9.78-17.12h6.39l-.16 4.98 4.45-4.98h6.39l-7.45 17.12h-7.27l2.58-4.98h0zm14.01 4.98H43.5l7.25-17.12h5.96L53.6 30.84l7.83-10.17h6.82L56.69 37.79h-6.31 0z" clip-path="url(#SVGID_8_)" fill="none" stroke="#294993" stroke-width=".416"/><path class="st1" d="M14.21 17.53c0-.19-.08-.39-.39-.39-.19 0-.35.1-.35.31 0 .15.04.23.46.41.39.18.61.42.61.83 0 .53-.31.87-.89.87-.52 0-.87-.29-.87-.93h.47c.01.34.19.45.42.45.21 0 .4-.12.4-.34 0-.2-.08-.28-.47-.47-.36-.16-.6-.35-.6-.77 0-.58.4-.83.84-.83.82 0 .84.66.84.87h-.47v-.01zM15.48 17.21h-.62l.08-.48h1.67l-.08.48h-.55l-.37 2.28h-.49l.36-2.28zM17.8 17.31l-.5 1.16h.59l-.09-1.16zm-.21-.58h.58l.29 2.75h-.49l-.04-.54h-.83l-.23.54h-.52l1.24-2.75zM19.34 17.21h-.62l.08-.48h1.67l-.08.48h-.55l-.37 2.28h-.49l.36-2.28zM20.75 16.73h1.57l-.08.48h-1.08l-.1.61h1l-.08.47h-.99l-.11.72h1.14l-.08.48h-1.63l.44-2.76zM24.14 19.08c.6 0 .75-.78.76-1.22 0-.51-.26-.72-.55-.72-.6 0-.75.78-.76 1.22-.01.5.25.72.55.72zm.22-2.41c.79 0 1.03.7 1.03 1.23 0 .79-.41 1.66-1.27 1.66-.79 0-1.03-.7-1.03-1.23.01-.79.42-1.66 1.27-1.66zM25.88 16.73h1.43l-.08.48h-.94l-.1.64h.86l-.06.48h-.89l-.18 1.16h-.49l.45-2.76zM29.69 17.66c0-.33-.19-.52-.43-.52-.6 0-.75.78-.76 1.22 0 .38.15.7.56.7.24 0 .47-.14.55-.51h.5c-.13.63-.5 1.01-1.07 1.01-.79 0-1.03-.7-1.03-1.23 0-.79.41-1.66 1.27-1.66.54 0 .91.34.91.99h-.5zM31.56 17.31l-.5 1.16h.59l-.09-1.16zm-.21-.58h.58l.29 2.75h-.49l-.04-.54h-.83l-.23.54h-.53l1.25-2.75zM33.92 19.49h-1.6l.44-2.76h.49L32.89 19H34l-.08.49zM34.49 16.73h.49l-.44 2.76h-.49l.44-2.76zM35.34 16.73h1.43l-.07.48h-.94l-.11.64h.87l-.07.48h-.88l-.19 1.16h-.49l.45-2.76zM37.83 19.08c.6 0 .75-.78.76-1.22 0-.51-.26-.72-.55-.72-.6 0-.75.78-.76 1.22-.01.5.25.72.55.72zm.22-2.41c.79 0 1.03.7 1.03 1.23 0 .79-.41 1.66-1.27 1.66-.79 0-1.03-.7-1.03-1.23.01-.79.41-1.66 1.27-1.66zM39.89 17.96h.47c.35 0 .46-.25.47-.44 0-.32-.26-.32-.36-.32h-.46l-.12.76zm-.29-1.23h.9c.48 0 .82.21.82.8 0 .38-.19.62-.44.71.08.04.21.1.21.43 0 .08-.03.41-.03.48 0 .16.01.22.11.26v.07h-.57a.647.647 0 01-.04-.2c0-.16.02-.32.03-.48 0-.21-.02-.39-.34-.39h-.42l-.16 1.07h-.49l.42-2.75zM42.96 18.49l.05.18.08-.54.21-1.4h.48l-.44 2.76h-.51l-.56-1.68-.09-.27-.04.37-.23 1.58h-.49l.45-2.76h.51l.58 1.76zM44.3 16.73h.5l-.44 2.76h-.5l.44-2.76zM46.07 17.31l-.5 1.16h.59l-.09-1.16zm-.21-.58h.58l.29 2.75h-.49l-.04-.54h-.83l-.23.54h-.52l1.24-2.75zM1.25 41.45h.42c.53 0 .71-.64.72-1.11 0-.43-.15-.66-.49-.66h-.37l-.28 1.77zm-.14-2.25h.8c.68 0 .98.38.97 1.18 0 .59-.26 1.15-.63 1.39-.25.17-.65.18-.66.18H.68l.43-2.75zM3.39 39.2h1.57l-.07.47H3.8l-.09.61h.99l-.07.48h-1l-.11.72h1.14l-.07.47H2.95l.44-2.75zM5.6 40.52h.44c.31 0 .45-.21.45-.47 0-.21-.07-.38-.33-.38h-.42l-.14.85zm-.28-1.32h.81c.61 0 .83.38.83.79 0 .62-.33 1-.96 1h-.47l-.15.96h-.5l.44-2.75zM8.1 39.77l-.5 1.16h.59l-.09-1.16zm-.21-.57h.58l.29 2.75h-.49l-.04-.54h-.84l-.23.54h-.52l1.25-2.75zM9.62 40.43h.47c.35 0 .47-.25.47-.44 0-.32-.26-.32-.36-.32h-.46l-.12.76zm-.29-1.23h.9c.48 0 .82.21.82.8 0 .38-.19.62-.44.71.08.04.21.1.21.43 0 .08-.03.41-.03.48 0 .16.01.22.11.26v.07h-.57a.647.647 0 01-.04-.2c0-.16.02-.32.03-.48 0-.21-.02-.39-.34-.39h-.43l-.16 1.07h-.5l.44-2.75zM11.94 39.67h-.63l.08-.47h1.67l-.07.47h-.56l-.37 2.28h-.49l.37-2.28zM13.33 39.2h.72l.09 2.04.74-2.04h.74l-.44 2.75h-.46l.4-2.35-.86 2.35h-.44l-.12-2.35h-.01l-.33 2.35h-.46l.43-2.75zM16 39.2h1.57l-.07.47h-1.09l-.09.61h.99l-.07.48h-1l-.11.72h1.14l-.08.47h-1.63L16 39.2zM19.02 40.96l.06.18.07-.55.21-1.39h.48l-.44 2.75h-.51l-.56-1.68-.08-.27-.05.38-.22 1.57h-.49l.44-2.75h.52l.57 1.76zM20.57 39.67h-.63l.08-.47h1.67l-.07.47h-.56l-.37 2.28h-.49l.37-2.28zM23.43 41.55c.6 0 .75-.78.76-1.22 0-.51-.26-.72-.55-.72-.6 0-.75.78-.76 1.22 0 .5.26.72.55.72zm.23-2.42c.79 0 1.03.7 1.03 1.23 0 .79-.41 1.66-1.27 1.66-.79 0-1.03-.7-1.03-1.23 0-.78.41-1.66 1.27-1.66zM25.17 39.2h1.43l-.07.48h-.94l-.1.64h.86l-.07.47h-.88l-.18 1.16h-.49l.44-2.75zM27.64 39.2h.72l.09 2.04.74-2.04h.74l-.44 2.75h-.46l.4-2.35-.86 2.35h-.44l-.12-2.35H28l-.33 2.35h-.46l.43-2.75zM31.05 41.55c.6 0 .75-.78.76-1.22 0-.51-.26-.72-.55-.72-.6 0-.75.78-.76 1.22-.01.5.25.72.55.72zm.22-2.42c.79 0 1.03.7 1.03 1.23 0 .79-.41 1.66-1.27 1.66-.79 0-1.03-.7-1.03-1.23 0-.78.41-1.66 1.27-1.66zM33.13 39.67h-.62l.08-.47h1.67l-.08.47h-.55l-.37 2.28h-.49l.36-2.28zM35.27 41.55c.6 0 .75-.78.76-1.22 0-.51-.26-.72-.55-.72-.6 0-.75.78-.76 1.22 0 .5.26.72.55.72zm.23-2.42c.79 0 1.03.7 1.03 1.23 0 .79-.41 1.66-1.27 1.66-.79 0-1.03-.7-1.03-1.23 0-.78.41-1.66 1.27-1.66zM37.33 40.43h.47c.35 0 .46-.25.47-.44 0-.32-.26-.32-.36-.32h-.46l-.12.76zm-.29-1.23h.9c.48 0 .82.21.82.8 0 .38-.19.62-.44.71.08.04.21.1.21.43 0 .08-.03.41-.03.48 0 .16.01.22.11.26v.07h-.57a.647.647 0 01-.04-.2c0-.16.02-.32.03-.48 0-.21-.02-.39-.34-.39h-.42l-.16 1.07h-.49l.42-2.75zM41.2 39.2h.53l-1.12 2.75h-.47l-.34-2.75h.49l.18 1.96.73-1.96zM41.97 39.2h1.56l-.07.47h-1.09l-.09.61h1l-.08.48h-.99l-.11.72h1.13l-.07.47h-1.64l.45-2.75zM43.9 39.2h.49l-.17 1.05h.93l.16-1.05h.5l-.45 2.75h-.49l.2-1.23h-.92l-.2 1.23h-.5l.45-2.75zM46.17 39.2h.49l-.44 2.75h-.49l.44-2.75zM48.36 40.12c0-.33-.19-.52-.43-.52-.6 0-.75.78-.76 1.22 0 .38.15.7.56.7.24 0 .47-.14.55-.51h.5c-.14.63-.5 1.01-1.07 1.01-.79 0-1.03-.7-1.03-1.23 0-.79.41-1.66 1.27-1.66.54 0 .91.34.91.99h-.5zM50.47 41.95h-1.6l.44-2.75h.49l-.35 2.26h1.1l-.08.49zM51.06 39.2h1.57l-.07.47h-1.09l-.09.61h.99l-.07.48h-.99l-.12.72h1.14l-.07.47h-1.64l.44-2.75zM53.99 40c0-.19-.08-.39-.39-.39-.19 0-.34.1-.35.31 0 .15.04.23.46.41.39.18.61.42.61.83 0 .53-.31.87-.89.87-.52 0-.87-.29-.87-.93h.47c.01.34.19.45.42.45.21 0 .4-.12.4-.34 0-.2-.08-.28-.47-.47-.35-.16-.59-.36-.59-.78 0-.58.4-.83.84-.83.82 0 .84.66.84.87h-.48zM55.44 38.94c.07 0 .12-.02.12-.1 0-.09-.09-.09-.16-.09h-.16v.18h.2v.01zm.23.37h-.15l-.15-.28h-.13v.28h-.13v-.66h.32c.06 0 .13 0 .18.03.06.04.08.1.08.17 0 .12-.06.17-.18.18l.16.28zm.19-.33a.49.49 0 10-.49.49c.27.01.49-.21.49-.49zm-1.1 0c0-.33.27-.61.61-.61.33 0 .61.27.61.61 0 .34-.27.61-.61.61-.34 0-.61-.27-.61-.61z"/></g></svg>