<svg viewBox="0 0 519 172" xmlns="http://www.w3.org/2000/svg" xmlns:xlink="http://www.w3.org/1999/xlink"><defs><path d="M42.59 1.33c-1.4 1.308-2.688 3.32-3.858 5.803-2.235-3.126-5.11-5.053-8.771-5.525-5.978-.77-14.164 2.837-17.092 7.083C4.373 21.007-5.355 59.12 4.934 62.757c9.89 3.495 18.634-7.801 25.973-16.53-.102 3.158-.027 5.872.24 7.846.56 4.13 3.226 5.902 6.009 6.17 3.8.368 7.118-.996 9.206-3.118 3.484-3.54 9.342-15.838 13.631-26.073-.262-.93-1.022-1.395-2.162-1.503-1.56.031-2.84.508-3.76 1.559-4.542 9.119-12.448 23.056-13.733 22.897-1.653-.206 4.173-30.77 9.685-47.58.242-.887.061-1.542-.239-2.132-.582-1.145-1.798-2.18-3.311-2.863-.749-.338-1.556-.725-2.351-.725-.523 0-1.04.167-1.531.625zM13.92 54.95C8.26 52.182 23.809 5.083 32.265 10.293c.908.56 2.1 3.155 3.182 6.001-1.75 6.253-3.032 13.44-3.788 20.051-6.51 9.55-13.585 18.759-17.033 18.758-.255 0-.491-.05-.704-.155z" id="a"/><path d="M22.935 1.39C14.008 9.77-1.985 70.995.995 85.378c.902 4.352 4.4 6.635 7.269 6.914.9.088 1.795.079 2.668-.02 2.645-.304 5.09-1.437 6.846-3.235 3.49-3.571 9.329-15.874 13.627-26.197l.065-.155-.045-.16c-.305-1.093-1.164-1.713-2.608-1.848-1.748.035-3.116.614-4.075 1.72l-.067.1c-4.856 9.813-11.384 21.03-13.041 22.48-.94-4.815 14.522-59.757 20.733-78.822l.007-.024c.302-1.118.014-1.909-.271-2.473-.64-1.27-1.245-1.63-2.809-2.342-.7-.32-2.234-.718-3.687-.718-1.044 0-2.046.206-2.672.792z" id="c"/><path d="M4.453 3.364C1.923 6.803.93 10.294.173 14.16c-.586 2.98 10.944 7.163 12.03 5.048 1.667-3.248 2.181-7.044 2.459-10.959l.029-.407c.228-3.058.496-5.977-1.823-6.933C12.265.66 11.584.55 10.877.55 8.372.549 5.516 1.92 4.454 3.364z" id="e"/><path d="M11.976 1.138C3.388 9.05-1.517 38.428 1.581 53.103c.857 4.056 4.15 6.238 6.948 6.504 3.824.366 7.163-.99 9.263-3.098 3.505-3.52 9.398-15.743 13.714-25.918-.264-.924-1.029-1.385-2.175-1.492-1.57.031-2.858.505-3.783 1.55-4.571 9.063-12.525 22.917-13.816 22.758-1.664-.204 4.197-30.585 9.744-47.293.242-.882.06-1.534-.241-2.12-.586-1.138-1.81-2.167-3.332-2.845-.727-.325-2.196-.665-3.542-.665-.964 0-1.864.174-2.385.654z" id="g"/><path d="M30.65.16c-8.065 8.55-14.23 18.853-18.41 29.643-6 2.933-10.362 6.084-11.86 8.614-.146.424.218 2.589 2.223 4.052.953.698 2.992.512 4.774-.54.32-.186.723-.404 1.194-.645-5.44 21.62-2.977 43.435 8.255 55.854 2.28 2.577 5.62 2.91 8.154 1.537 5.672-2.64 12.047-25.495 12.016-48.005-.011-7.703-1.486-13.503-3.746-18.84 7.188-2.116 14.284-3.568 19.064-3.128 1.81-.32 2.361-1.45 2.025-3.148-.382-2.414-3.824-4.73-6.056-4.694-6.167.1-12.48 1.085-18.434 2.586 2.496-5.758 5.574-11.33 9.348-16.466-.473-4.19-3.395-6.84-7.861-6.84-.225 0-.453.006-.685.02zm-7.452 93.594c-2.854-1.863-6.096-31.101 2.693-59.558.639-.221 1.282-.44 1.93-.657 1.788 4.467 3.2 10.224 3.645 17.757 1.034 17.467-6.955 42.476-8.22 42.473a.088.088 0 01-.048-.015z" id="i"/><path d="M22.298 6.161c-8.47 10.41-16.226 21.436-20.58 34.402-2.62 7.814-1.087 16.951 3.696 20.995 4.617 3.904 14.774 3.91 21.575.012 16.288-9.332 26.386-30.013 23.926-48.968-.76-5.459-2.56-9.649-7.55-10.945a30.142 30.142 0 00-7.48-.973c-5.145 0-10.324 1.466-13.587 5.477zm-9.03 48.007c-1.192-10.914 3.021-20.383 9.05-29.057C25.883 19.98 34.36 4.427 41.402 7.681c7.044 3.252-6.736 43.82-20.332 50.068-1.529.702-2.86 1.083-3.973 1.083-2.144 0-3.474-1.415-3.829-4.664z" id="k"/><path d="M27.057.678c-7.797.82-11.218 3.697-15.954 7.765.218-.623.445-1.265.688-1.95.99-4.192-3.521-4.993-5.806-.654-3.557 8.274-4.79 11.534-5.86 21.992-.12 2.076 4.578 2.705 5.2 1.288.66-2.644.962-4.236 1.27-5.754 4.48-6.891 12.193-15.103 18.054-16.278-6.346 11.864-8.965 37.603-5.669 47.546 1.31 3.952 3.247 5.894 6.044 6.162 3.824.368 7.163-.994 9.263-3.113 3.504-3.536 9.397-15.815 13.714-26.035-.261-.93-1.027-1.393-2.173-1.502-1.57.033-2.859.508-3.784 1.557-4.57 9.106-12.523 23.022-13.816 22.863-1.664-.205 3.762-30.84 9.308-47.625.242-.886.061-1.54-.24-2.129-.585-1.143-1.81-2.176-3.332-2.858a2.007 2.007 0 00-.239-.088C31.687.889 30.297.452 28.893.452 28.3.45 27.705.529 27.057.678z" id="m"/><path d="M40.289 1.655C39.196 2.67 38.24 4.11 37.41 5.87 31.632 9.88 25.16 16.732 18.973 23.886a349.32 349.32 0 013.843-12.502c.836-4.256-9.712-7.101-11.84-2.649C3.65 25.85 1.042 44.884.464 65.08c1.523 4.238 8.577 3.014 11.344.72-.012-6.85.859-14.391 2.424-22.475 6.018-9.207 13.455-17.236 19.51-22.795-1.586 12.777-.741 28.053 1.564 35.026 1.315 3.98 3.26 5.934 6.07 6.204 3.84.37 7.194-1.002 9.303-3.135 3.518-3.56 9.437-15.924 13.771-26.214-.265-.934-1.033-1.4-2.184-1.51-1.577.032-2.87.51-3.799 1.566-4.59 9.169-12.578 23.182-13.874 23.021-1.672-.207-.13-32.659 5.44-49.558.243-.891.062-1.55-.242-2.143-.587-1.152-1.817-2.193-3.344-2.879-.461-.206-1.244-.317-2.114-.317-1.498 0-3.252.329-4.044 1.064z" id="o"/><path d="M4.627 3.34C2.22 6.779 1.274 10.27.551 14.133c-.557 2.981 10.423 7.165 11.457 5.048 1.587-3.247 2.077-7.042 2.341-10.957l.03-.408c.215-3.057.472-5.977-1.737-6.932-.575-.25-1.223-.36-1.898-.36C8.36.524 5.64 1.897 4.627 3.34z" id="q"/><path d="M11.541 1.114C3.028 9.027-1.835 38.404 1.237 53.079c.849 4.055 4.113 6.239 6.886 6.505 3.791.365 7.1-.99 9.182-3.1 3.475-3.518 9.316-15.742 13.596-25.916-.262-.924-1.02-1.385-2.157-1.493-1.558.03-2.834.505-3.75 1.549-4.531 9.064-12.415 22.918-13.695 22.76-1.65-.205 4.16-30.585 9.658-47.294.24-.882.06-1.533-.239-2.12-.58-1.138-1.793-2.167-3.302-2.845C16.696.8 15.24.46 13.904.46c-.955 0-1.847.174-2.363.654z" id="s"/><path d="M42.348.869c-1.403 1.301-2.69 3.305-3.86 5.777-2.235-3.111-5.11-5.031-8.77-5.501C23.74.378 15.552 3.97 12.624 8.197 4.13 20.461-5.6 58.41 4.69 62.03c9.89 3.48 18.635-7.767 25.974-16.459-.102 3.145-.027 5.847.24 7.812.56 4.113 3.227 5.877 6.008 6.145 3.8.366 7.12-.992 9.207-3.105 3.483-3.525 9.34-15.77 13.63-25.961-.262-.927-1.021-1.388-2.161-1.496-1.562.031-2.841.506-3.76 1.551-4.543 9.081-12.449 22.958-13.732 22.8-1.656-.206 4.172-30.638 9.684-47.376.241-.883.06-1.535-.24-2.123-.58-1.14-1.798-2.171-3.31-2.85-.75-.337-1.557-.722-2.352-.722-.523 0-1.04.167-1.53.623zM13.676 54.257c-5.66-2.755 9.89-49.65 18.344-44.464.908.559 2.1 3.142 3.183 5.976-1.75 6.225-3.031 13.381-3.788 19.964-6.51 9.51-13.586 18.679-17.035 18.678-.254 0-.49-.05-.704-.154z" id="u"/></defs><g fill="none" fill-rule="evenodd"><path d="M71.263 25.262c5.175-.591 11.349 2.298 13.85 7.294 3.862 11.35-.359 31.61-9.178 40.43-3.602 3.974-9.508.243-7.842-1.619 6.862-7.826 10.852-18.246 9.614-32.147-.424-4.756-3.495-5.26-7.707-2.724C40.964 46.83 2.89 132.886 24.875 153.363c13.57 12.64 48.958 5.735 78.422-3.415 176.035-55.98 314.109-68.595 415.345-42.526-1.512 8.515-6.715 16.372-17.643 23.208-139.226-17.755-223.27-14.319-412.455 37.186-18.287 4.282-49.948 6.35-69.389-4.63-35.377-19.976-.207-131.936 52.108-137.924" fill="#6D282B"/><path d="M118.585 74.196c1.16-1.236 2.612-.643 3.894-.174 1.561.573 2.851 1.518 3.513 2.615.342.566.568 1.205.388 2.104-4.35 17.1-8.058 47.898-6.387 47.986 1.296.069 8.242-14.342 12.156-23.727.847-1.11 2.096-1.673 3.656-1.814 1.149.029 1.942.436 2.269 1.343-3.583 10.477-8.593 23.115-11.834 26.88-1.942 2.256-5.17 3.844-9 3.744-2.804-.072-5.597-1.648-6.445-5.715-.404-1.944-.668-4.637-.786-7.784-6.74 9.192-14.709 21.037-24.854 18.254-10.553-2.896-3.463-41.473 4.186-54.313 2.636-4.426 10.581-8.587 16.619-8.24 3.698.213 6.71 1.93 9.165 4.88.999-2.552 2.148-4.642 3.46-6.04m-9.715 9.636c-8.827-4.588-21.12 43.331-15.26 45.685 3.211 1.29 10.178-9.052 16.465-19.74.297-6.626 1.08-13.862 2.398-20.2-1.282-2.755-2.656-5.252-3.603-5.745" fill="#6D282B"/><path d="M143.085 130.01c2.648-.488 5.036-1.789 6.682-3.702 3.272-3.8 8.305-16.457 11.924-27.035l.054-.157-.057-.157c-.382-1.066-1.294-1.622-2.758-1.655-1.762.158-3.102.83-3.992 1.998l-.061.106c-4.216 10.108-10.02 21.732-11.592 23.294-1.283-4.726 10.493-60.5 15.431-79.913l.006-.024c.227-1.133-.12-1.901-.447-2.442-.734-1.218-1.369-1.536-2.995-2.134-1.254-.459-4.998-.98-6.411.524-8.423 8.97-20.296 71.034-16.288 85.138 1.212 4.267 4.9 6.293 7.813 6.368a12.96 12.96 0 002.691-.209M176.81 60.75c1.387-3.283 1.624-7.023 1.624-10.863l.001-.401c.01-3 .07-5.868-2.232-6.645-2.72-.917-6.765 1.067-7.953 2.966-2.206 3.528-2.925 7.004-3.393 10.827-.361 2.948 11.05 6.254 11.953 4.115" fill="#6D282B"/><path d="M173.147 120.768c3.242-3.765 8.251-16.403 11.835-26.88-.328-.906-1.121-1.314-2.27-1.342-1.56.14-2.808.703-3.656 1.813-3.914 9.385-10.86 23.797-12.156 23.727-1.67-.088 2.037-30.886 6.388-47.986.18-.9-.047-1.538-.388-2.103-.661-1.098-1.952-2.042-3.514-2.616-1.28-.469-4.737-.835-5.899.402-7.993 8.514-10.82 38.241-6.709 52.706 1.136 3.997 4.565 5.951 7.369 6.023 3.83.1 7.058-1.488 9-3.744" fill="#6D282B"/><path d="M204.134 55.417c4.831-.62 8.219 1.852 9.022 6.21-3.416 5.387-6.105 11.164-8.198 17.085 5.848-1.915 12.093-3.338 18.253-3.87 2.23-.192 5.834 1.878 6.383 4.26.455 1.672-.016 2.837-1.804 3.284-4.811-.106-11.807 1.84-18.847 4.453 2.632 5.169 4.512 10.854 5.061 18.54 1.601 22.46-3.178 45.714-8.667 48.745-2.438 1.547-5.8 1.449-8.262-.964-12.099-11.607-16.084-33.205-12.154-55.16-.452.274-.841.52-1.148.728-1.708 1.174-3.733 1.502-4.737.873-2.107-1.322-2.621-3.457-2.504-3.889 1.32-2.63 5.463-6.079 11.258-9.425 3.428-11.06 8.874-21.773 16.344-30.87m-.501 33.508c-.633.261-1.261.525-1.884.79-6.805 29.013-1.521 57.963 1.462 59.623 1.14.635 7.59-25.349 5.306-42.948-.97-7.486-2.784-13.133-4.884-17.465" fill="#6D282B"/><path d="M238.226 53.19c4.427-6.305 13.525-7.22 20.506-5.915 5.02.939 7.088 4.963 8.217 10.315 3.745 18.598-4.802 39.773-20.251 50.138-6.451 4.33-16.488 5.025-21.321 1.479-5.007-3.674-7.155-12.615-5.105-20.533 3.404-13.139 10.304-24.591 17.954-35.484m18.983.184c-7.185-2.734-14.483 13.25-17.652 18.578-5.356 9.005-8.864 18.671-6.93 29.395.874 4.849 3.676 5.352 7.957 3.006 13.003-7.124 23.81-48.245 16.625-50.979M305.033 96.474c3.24-3.764 8.25-16.402 11.834-26.88-.325-.907-1.119-1.315-2.268-1.342-1.56.14-2.809.704-3.656 1.813-3.913 9.385-10.86 23.796-12.156 23.727-1.67-.088 1.596-30.971 5.946-48.071.18-.9-.047-1.538-.388-2.103-.662-1.098-1.953-2.041-3.514-2.615a2.34 2.34 0 00-.243-.071c-2.982-1.18-4.58-1.369-6.719-.718-7.702 1.36-10.906 4.463-15.337 8.843.176-.636.355-1.29.55-1.989.694-4.245-3.851-4.728-5.824-.248-2.963 8.487-3.962 11.818-4.3 22.308.026 2.075 4.745 2.374 5.266.919.473-2.679.66-4.285.863-5.817 3.978-7.174 11.08-15.889 16.832-17.466-5.49 12.256-6.303 38.067-2.33 47.74 1.578 3.844 3.64 5.643 6.443 5.716 3.83.099 7.058-1.49 9-3.746" fill="#6D282B"/><path d="M322.347 94.217c-.487-6.773-.145-14.291.847-22.395 5.327-9.523 12.14-17.979 17.757-23.895-.688 12.746 1.206 27.795 3.972 34.53 1.579 3.846 3.641 5.644 6.444 5.717 3.83.099 7.059-1.49 9.002-3.746 3.24-3.764 8.25-16.401 11.833-26.88-.327-.905-1.12-1.313-2.269-1.341-1.56.14-2.809.704-3.656 1.813-3.913 9.386-10.86 23.796-12.156 23.728-1.67-.09-2.387-32.29 1.964-49.39.179-.898-.047-1.537-.388-2.103-.662-1.098-1.953-2.042-3.514-2.615-1.281-.469-4.89-.07-6.05 1.166-1.013 1.079-1.86 2.57-2.56 4.368-5.45 4.368-11.39 11.592-17.026 19.096a344.446 344.446 0 012.945-12.63c.534-4.268-10.116-6.351-11.917-1.8-6.076 17.433-7.343 36.437-6.52 56.452 1.803 4.084 8.708 2.386 11.292-.075M386.858 22.057c1.386-3.282 1.624-7.022 1.624-10.862l.001-.401c.011-3 .07-5.868-2.231-6.645-2.72-.917-6.766 1.067-7.954 2.966-2.205 3.528-2.924 7.004-3.392 10.827-.362 2.948 11.049 6.255 11.952 4.115" fill="#6D282B"/><path d="M383.196 82.076c3.241-3.765 8.25-16.403 11.834-26.88-.327-.906-1.121-1.314-2.27-1.342-1.56.14-2.808.704-3.656 1.813-3.913 9.385-10.86 23.797-12.155 23.727-1.671-.088 2.037-30.886 6.386-47.986.18-.899-.046-1.538-.387-2.103-.662-1.098-1.952-2.042-3.514-2.616-1.28-.469-4.737-.835-5.899.402-7.992 8.514-10.819 38.241-6.709 52.706 1.137 3.997 4.565 5.951 7.369 6.023 3.83.1 7.058-1.488 9-3.744" fill="#6D282B"/><path d="M427.807 17.235c1.16-1.235 2.612-.642 3.893-.172 1.562.572 2.853 1.517 3.514 2.614.341.565.568 1.204.388 2.103-4.35 17.1-8.058 47.899-6.387 47.987 1.296.068 8.242-14.343 12.156-23.728.847-1.109 2.095-1.672 3.656-1.813 1.148.028 1.941.436 2.269 1.342-3.583 10.478-8.593 23.115-11.834 26.88-1.943 2.256-5.17 3.844-9.001 3.745-2.803-.073-5.597-1.648-6.444-5.716-.404-1.943-.668-4.636-.786-7.784-6.74 9.193-14.709 21.037-24.854 18.254-10.554-2.895-3.463-41.472 4.185-54.312 2.637-4.427 10.582-8.587 16.62-8.24 3.698.213 6.71 1.929 9.165 4.88.999-2.552 2.148-4.642 3.46-6.04m-9.716 9.636c-8.827-4.588-21.12 43.33-15.26 45.685 3.212 1.29 10.179-9.052 16.466-19.74.297-6.626 1.08-13.862 2.397-20.2-1.282-2.755-2.655-5.252-3.603-5.745M224.123 149.113l4.933 8.005 1.466-9.25-1.468.286-.309-1.586 4.854-.945.31 1.586-1.52.296-2.012 12.08-1.764.342-6.465-10.43-1.57.306-.31-1.586 5.015-.975.31 1.585zM239.917 146.145l-.06.01-.912 5.543 3.63-.618-2.658-4.935zm1.747-.298l5.103 9.041 1.425-.242.271 1.592-5.036.859-.271-1.593 1.67-.284-1.487-2.728-4.637.791-.499 3.067 1.62-.277.272 1.593-5.07.864-.272-1.592 1.543-.263 1.798-10.219-1.534.262-.265-1.542 6.64-1.133.262 1.542-1.533.262zM257.414 143.468l-1.83.267-.234-1.597 5.26-.77.233 1.598-1.88.275 1.664 11.352-1.992.291-7.758-10.05 1.351 9.216 1.838-.269.234 1.6-5.25.768-.235-1.599 1.83-.268-1.41-9.617-1.83.269-.234-1.6 4.374-.64 7.093 9.132zM265.259 142.416l1.259 9.638 1.399-.182.208 1.601-4.732.618-.21-1.602 1.39-.182-1.258-9.637-1.391.18-.209-1.6 4.734-.619.208 1.602zM277.096 144.122l-.362-3.099-2.658.312 1.134 9.654 1.674-.197.189 1.605-5.262.617-.19-1.605 1.64-.191-1.133-9.654-2.639.31.364 3.098-1.589.186-.552-4.702 10.421-1.224.552 4.703zM283.1 140.345l3.219 3.696 2.215-4.235-1.608.16-.16-1.609 5.152-.511.16 1.609-1.686.166-3.074 5.773.423 4.258 1.77-.175.162 1.607-5.453.54-.159-1.607 1.737-.172-.423-4.259-4.38-5.032-1.575.156-.16-1.608 5.298-.526.159 1.61zM305.966 140.695c-.061-.806-.344-1.378-.846-1.715-.504-.339-1.33-.465-2.478-.377l-1.346.102.363 4.79 1.209-.092c.794-.06 1.423-.181 1.886-.363.464-.182.794-.46.99-.833.196-.374.27-.878.222-1.512m1.983-.107c.09 1.176-.2 2.158-.87 2.945-.67.786-1.873 1.25-3.604 1.392l-1.699.13.254 3.342 1.681-.128.123 1.611-5.249.398-.123-1.61 1.613-.124-.735-9.691-1.612.123-.123-1.612 4.811-.364c1.299-.098 2.34-.037 3.124.185.786.222 1.365.608 1.74 1.157.375.548.597 1.297.67 2.246M312.28 137.93l.6 9.7 4.248-.262-.246-4.005 1.605-.1.346 5.619-9.477.585-.1-1.613 1.666-.102-.599-9.7-1.664.101-.1-1.613 5.288-.326.1 1.613zM326.016 137.132l-.06.003-1.588 5.389 3.676-.168-2.028-5.224zm1.77-.08l3.95 9.6 1.443-.066.076 1.614-5.105.233-.073-1.614 1.692-.077-1.14-2.89-4.699.215-.872 2.98 1.642-.073.073 1.614-5.138.235-.074-1.615 1.564-.071 3.043-9.92-1.554.07-.073-1.562 6.729-.308.07 1.563-1.554.071zM341.312 139.747l-.096-3.118-2.673.083.3 9.715 1.685-.053.05 1.615-5.296.164-.05-1.614 1.651-.051-.3-9.716-2.656.083.096 3.118-1.6.049-.145-4.733 10.488-.324.146 4.733zM352.997 138.57l-.035-2.166-5.547.09.063 3.859 4.824-.079.027 1.616-4.825.078.069 4.245 5.547-.09-.039-2.364 1.599-.025.065 3.978-10.776.175-.026-1.615 1.668-.026-.156-9.72-1.669.028-.026-1.616 10.776-.176.061 3.781zM367.34 136.317h-.06l-1.863 5.3 3.682.02-1.759-5.32zm1.773.01l3.452 9.791 1.446.009-.01 1.614-5.11-.028.01-1.616 1.695.01-.99-2.944-4.705-.027-1.023 2.933 1.644.01-.01 1.615-5.144-.03.01-1.614 1.566.009 3.546-9.752-1.556-.009.009-1.564 6.735.038-.01 1.564-1.555-.009zM382.843 138.936c.018-.808-.207-1.404-.676-1.79-.467-.385-1.277-.59-2.43-.613l-1.35-.028-.101 4.802 1.212.026c.797.017 1.434-.043 1.913-.18.48-.136.835-.38 1.066-.733.23-.354.354-.848.366-1.484m1.986.085c-.026 1.18-.41 2.128-1.152 2.846-.744.718-1.985 1.065-3.721 1.04l-1.703-.035-.07 3.35 1.685.036-.034 1.614-5.263-.109.034-1.615 1.617.033.204-9.718-1.616-.034.033-1.614 4.825.1c1.3.027 2.332.189 3.091.486.76.297 1.298.737 1.62 1.32.32.582.47 1.348.45 2.3M393.823 139.277c.027-.807-.19-1.407-.653-1.798-.462-.391-1.27-.607-2.422-.646l-1.35-.047-.164 4.802 1.212.041c.797.027 1.435-.023 1.915-.153.481-.13.84-.37 1.075-.72.237-.351.365-.844.387-1.48m1.985.111c-.042 1.18-.439 2.124-1.191 2.832-.752.708-1.998 1.038-3.734.99l-1.703-.058-.113 3.35 1.684.058-.056 1.614-5.26-.18.054-1.614 1.617.055.333-9.714-1.616-.055.055-1.615 4.823.164c1.3.045 2.328.22 3.083.528.756.306 1.29.752 1.602 1.34.312.586.453 1.355.422 2.305M400.37 137.213l-.457 9.708 4.254.2.188-4.01 1.606.076-.265 5.623-9.484-.444.077-1.614 1.665.078.456-9.709-1.666-.078.076-1.614 5.292.248-.076 1.614zM410.824 137.751l-.552 9.705 1.409.08-.092 1.612-4.765-.269.091-1.613 1.4.079.55-9.704-1.4-.08.092-1.613 4.766.27-.092 1.613zM424.523 138.452l.097-1.423 1.648.113-.285 4.14-1.682-.114c-.365-.858-.902-1.544-1.608-2.058a4.493 4.493 0 00-2.38-.861c-.853-.058-1.63.114-2.329.517-.7.402-1.264.967-1.69 1.693a5.358 5.358 0 00-.73 2.383 5.285 5.285 0 00.419 2.51 4.722 4.722 0 001.492 1.92 4.087 4.087 0 002.245.834 4.297 4.297 0 002.81-.758c.839-.578 1.482-1.434 1.928-2.569l1.587.988c-.545 1.41-1.41 2.472-2.594 3.186-1.185.714-2.538 1.019-4.06.914-1.252-.086-2.345-.461-3.276-1.124a6.243 6.243 0 01-2.103-2.566c-.472-1.046-.666-2.172-.583-3.378.09-1.309.447-2.456 1.07-3.442a5.965 5.965 0 012.45-2.222c1.01-.495 2.143-.701 3.396-.615a6.3 6.3 0 012.296.58 6.63 6.63 0 011.882 1.352M434.17 139.367l-.06-.005-2.277 5.137 3.669.312-1.333-5.444zm1.765.15l2.666 10.033 1.44.124-.137 1.61-5.091-.434.137-1.61 1.688.144-.752-3.013-4.688-.4-1.252 2.844 1.636.14-.137 1.609-5.124-.435.138-1.61 1.558.132 4.31-9.44-1.552-.133.134-1.557 6.71.57-.133 1.559-1.55-.132zM448.976 143.937l.307-3.104-2.662-.263-.956 9.673 1.678.165-.159 1.608-5.273-.52.159-1.608 1.643.162.957-9.672-2.644-.261-.308 3.104-1.592-.157.467-4.711 10.442 1.029-.466 4.712zM455.427 141.493l-1.055 9.663 1.402.153-.175 1.606-4.745-.517.175-1.606 1.394.152 1.055-9.662-1.394-.152.175-1.607 4.746.517-.175 1.607zM463.835 152.355c.883.106 1.7-.028 2.45-.405a4.673 4.673 0 001.832-1.639c.472-.716.76-1.506.866-2.371a5.182 5.182 0 00-.305-2.526 4.612 4.612 0 00-1.444-1.984c-.653-.52-1.424-.835-2.312-.943-.87-.106-1.668.013-2.391.355a4.274 4.274 0 00-1.771 1.565c-.457.7-.741 1.506-.852 2.416-.118.966-.039 1.85.236 2.651a4.17 4.17 0 001.37 1.958c.638.505 1.412.812 2.321.923m7.265-4.158c-.16 1.308-.59 2.435-1.292 3.384a6.059 6.059 0 01-2.682 2.069c-1.086.43-2.277.567-3.575.41-1.28-.156-2.384-.582-3.31-1.28a6.109 6.109 0 01-2.036-2.68c-.43-1.088-.568-2.271-.412-3.551.154-1.269.575-2.366 1.262-3.293a6.124 6.124 0 012.627-2.049c1.065-.44 2.23-.582 3.5-.428 1.321.16 2.456.59 3.404 1.291a6.165 6.165 0 012.082 2.654c.439 1.07.584 2.227.432 3.473M483.104 144.981l-1.832-.253.222-1.6 5.266.73-.222 1.599-1.884-.26-1.579 11.363-1.992-.276-4.637-11.818-1.281 9.228 1.839.256-.222 1.6-5.256-.728.222-1.601 1.832.253 1.337-9.627-1.832-.254.221-1.6 4.38.606 4.256 10.75zM494.38 145.847l.134-.875 1.564.239-.595 3.882-1.565-.239.136-.883c-.51-1.099-1.341-1.736-2.492-1.912-.702-.107-1.263-.048-1.68.178-.417.227-.667.605-.749 1.138-.078.51.04.924.354 1.245.312.32.821.63 1.524.928l1.443.63c.919.4 1.602.85 2.052 1.348.448.498.714.993.798 1.487a5.01 5.01 0 01-.007 1.607c-.177 1.16-.682 2.026-1.511 2.595-.83.569-1.853.76-3.072.574-1.162-.178-2.155-.765-2.975-1.76l-.164 1.062-1.597-.244.713-4.665 1.6.245-.175 1.13c.55 1.522 1.44 2.377 2.67 2.565.72.11 1.307.01 1.76-.3.454-.31.733-.803.836-1.477.14-.917-.409-1.654-1.646-2.208l-1.528-.695c-1.101-.504-1.883-1.079-2.347-1.723-.464-.644-.626-1.426-.485-2.343.172-1.127.64-1.95 1.4-2.469.762-.518 1.729-.687 2.902-.508 1.02.156 1.921.64 2.702 1.448" fill="#6D282B"/><path d="M67.385 21.806c5.175-.592 11.349 2.299 13.85 7.295 3.862 11.35-.359 31.61-9.178 40.43-3.602 3.974-9.508.242-7.842-1.62 6.862-7.826 10.852-18.246 9.614-32.147-.424-4.756-3.495-5.26-7.707-2.724C37.086 43.375-.987 129.43 20.997 149.906c13.57 12.64 48.958 5.736 78.422-3.414 176.035-55.98 314.109-68.594 415.345-42.525-1.512 8.514-6.715 16.371-17.643 23.208-139.226-17.756-223.27-14.32-412.455 37.184-18.286 4.283-49.948 6.35-69.389-4.628C-20.1 139.753 15.07 27.794 67.385 21.806" fill="#FEFEFE"/><path d="M114.707 70.74c1.16-1.236 2.612-.643 3.894-.173 1.561.572 2.851 1.517 3.513 2.614.342.566.568 1.205.388 2.104-4.35 17.1-8.058 47.898-6.387 47.987 1.296.068 8.242-14.343 12.156-23.729.847-1.108 2.096-1.672 3.656-1.812 1.149.027 1.942.435 2.269 1.341-3.583 10.478-8.593 23.116-11.834 26.88-1.942 2.256-5.17 3.845-9 3.745-2.804-.072-5.597-1.647-6.445-5.715-.404-1.944-.668-4.636-.786-7.785-6.74 9.193-14.709 21.038-24.854 18.255-10.553-2.896-3.463-41.473 4.186-54.313 2.636-4.427 10.582-8.587 16.619-8.24 3.698.213 6.71 1.929 9.165 4.88.999-2.55 2.148-4.642 3.46-6.04m-9.715 9.636c-8.827-4.588-21.12 43.331-15.26 45.685 3.211 1.29 10.178-9.052 16.465-19.74.297-6.626 1.08-13.861 2.398-20.2-1.282-2.755-2.656-5.252-3.603-5.745" fill="#FEFEFE"/><g transform="rotate(-4 1080.088 -998.541)"><mask id="b" fill="#fff"><use xlink:href="#a"/></mask><path fill="#FEFEFE" mask="url(#b)" d="M-4.455-1.703l67.202-1.702 1.728 69.04-67.201 1.703z"/></g><path d="M139.585 127.267c2.627-.488 4.998-1.793 6.63-3.714 3.246-3.817 8.232-16.532 11.815-27.158l.054-.159-.056-.157c-.38-1.071-1.286-1.633-2.74-1.666-1.75.157-3.079.832-3.962 2.005l-.06.106c-4.178 10.154-9.93 21.83-11.489 23.399-1.279-4.751 10.366-60.79 15.252-80.294l.006-.024c.225-1.14-.12-1.91-.446-2.455-.73-1.224-1.36-1.544-2.976-2.146-1.245-.464-4.963-.99-6.364.52-8.355 9.007-20.09 71.367-16.099 85.544 1.207 4.29 4.87 6.328 7.763 6.407a12.76 12.76 0 002.672-.208" fill="#FEFEFE"/><g transform="rotate(-4 567.271 -1726.084)"><mask id="d" fill="#fff"><use xlink:href="#c"/></mask><path fill="#FEFEFE" mask="url(#d)" d="M-12.06 1.203l47.145-5.391 10.717 96.127-47.144 5.391z"/></g><path d="M172.93 57.284c1.362-3.312 1.59-7.086 1.583-10.963v-.404c.006-3.028.06-5.923-2.21-6.711-2.683-.93-6.667 1.066-7.835 2.981-2.169 3.557-2.872 7.064-3.326 10.922-.352 2.976 10.901 6.332 11.788 4.175" fill="#FEFEFE"/><g transform="rotate(-4 648.998 -2259.355)"><mask id="f" fill="#fff"><use xlink:href="#e"/></mask><path fill="#FEFEFE" mask="url(#f)" d="M-5.435-1.404L17.65-3.979l3.018 26.396-23.085 2.575z"/></g><path d="M168.829 117.135c3.267-3.746 8.323-16.314 11.941-26.735-.329-.9-1.128-1.305-2.284-1.332-1.571.141-2.829.702-3.683 1.806-3.95 9.335-10.958 23.669-12.263 23.601-1.682-.086 2.08-30.71 6.476-47.714.181-.894-.046-1.53-.389-2.091-.665-1.09-1.964-2.029-3.537-2.597-1.288-.465-4.769-.826-5.94.405-8.056 8.471-10.93 38.03-6.803 52.407 1.14 3.973 4.592 5.912 7.415 5.981 3.857.096 7.108-1.486 9.067-3.73" fill="#FEFEFE"/><g transform="rotate(-4 970.497 -2084.219)"><mask id="h" fill="#fff"><use xlink:href="#g"/></mask><path fill="#FEFEFE" mask="url(#h)" d="M-8.347-.65l39.46-4.428 7.41 65.234-39.46 4.43z"/></g><path d="M200.39 51.944c4.812-.622 8.188 1.87 8.991 6.255-3.398 5.419-6.073 11.23-8.154 17.187 5.824-1.922 12.044-3.35 18.18-3.881 2.221-.192 5.812 1.894 6.36 4.292.455 1.683-.013 2.854-1.794 3.303-4.793-.11-11.76 1.843-18.77 4.468 2.625 5.203 4.502 10.925 5.054 18.66 1.611 22.604-3.133 46.001-8.598 49.047-2.427 1.555-5.777 1.454-8.23-.976-12.06-11.69-16.046-33.427-12.146-55.518-.451.276-.838.523-1.144.733-1.7 1.18-3.717 1.508-4.717.874-2.1-1.33-2.614-3.48-2.498-3.915 1.314-2.645 5.437-6.113 11.208-9.477 3.406-11.127 8.824-21.903 16.258-31.052m-.475 33.719c-.63.262-1.256.528-1.876.794-6.757 29.191-1.474 58.328 1.499 60 1.136.64 7.543-25.503 5.255-43.215-.973-7.534-2.783-13.218-4.878-17.58" fill="#FEFEFE"/><g transform="rotate(-4 859.27 -2395.718)"><mask id="j" fill="#fff"><use xlink:href="#i"/></mask><path fill="#FEFEFE" mask="url(#j)" d="M-4.305-2.59l61.589-1.553 2.672 106.28-61.589 1.554z"/></g><path d="M234.57 49.942c4.395-6.272 13.429-7.182 20.361-5.882 4.985.934 7.039 4.938 8.16 10.263 3.722 18.501-4.762 39.564-20.101 49.874-6.406 4.306-16.372 4.996-21.171 1.468-4.972-3.655-7.106-12.55-5.071-20.426 3.377-13.07 10.228-24.462 17.822-35.297m18.85.186c-7.135-2.722-14.38 13.18-17.526 18.478-5.317 8.957-8.8 18.573-6.878 29.24.87 4.824 3.651 5.326 7.902 2.992 12.91-7.085 23.637-47.99 16.502-50.71" fill="#FEFEFE"/><g transform="rotate(-4 751.861 -3008.397)"><mask id="l" fill="#fff"><use xlink:href="#k"/></mask><path fill="#FEFEFE" mask="url(#l)" d="M-4.495-1.963L54.41-3.442l1.782 70.568-58.905 1.479z"/></g><path d="M301.484 92.82c3.26-3.75 8.303-16.329 11.911-26.758-.326-.903-1.123-1.308-2.278-1.335-1.567.141-2.823.703-3.675 1.807-3.94 9.342-10.93 23.688-12.233 23.62-1.678-.087 1.625-30.821 6.009-47.842.18-.894-.046-1.53-.388-2.093-.665-1.091-1.962-2.03-3.53-2.599a2.06 2.06 0 00-.244-.07c-2.996-1.172-4.603-1.359-6.751-.71-7.742 1.36-10.963 4.449-15.42 8.81l.554-1.98c.701-4.224-3.867-4.701-5.852-.242-2.984 8.447-3.99 11.763-4.337 22.202.025 2.064 4.768 2.36 5.292.911.476-2.666.666-4.264.871-5.79 4.002-7.142 11.146-15.818 16.928-17.391-5.527 12.2-6.36 37.886-2.376 47.509 1.584 3.824 3.656 5.613 6.472 5.683 3.849.097 7.093-1.486 9.047-3.733" fill="#FEFEFE"/><g transform="rotate(-4 682.907 -3751.44)"><mask id="n" fill="#fff"><use xlink:href="#m"/></mask><path fill="#FEFEFE" mask="url(#n)" d="M-6.616.756l54.094-6.098 7.541 66.688-54.094 6.1z"/></g><path d="M318.543 91.694c-.489-6.8-.143-14.35.857-22.488 5.366-9.564 12.228-18.056 17.884-23.997-.695 12.798 1.21 27.909 3.993 34.673 1.59 3.86 3.665 5.666 6.488 5.738 3.856.099 7.107-1.497 9.064-3.763 3.263-3.78 8.31-16.471 11.92-26.993-.33-.909-1.128-1.32-2.284-1.348-1.572.142-2.829.708-3.682 1.822-3.942 9.425-10.94 23.898-12.245 23.829-1.681-.088-2.397-32.424 1.987-49.595.18-.903-.046-1.544-.39-2.112-.666-1.102-1.965-2.05-3.537-2.625-1.29-.471-4.923-.07-6.092 1.171-1.02 1.084-1.874 2.581-2.58 4.387-5.487 4.387-11.469 11.642-17.146 19.178a345.627 345.627 0 012.967-12.683c.54-4.285-10.183-6.375-11.998-1.805-6.121 17.507-7.4 36.591-6.575 56.688 1.814 4.102 8.767 2.395 11.369-.077" fill="#FEFEFE"/><g transform="rotate(-4 534.544 -4305.347)"><mask id="p" fill="#fff"><use xlink:href="#o"/></mask><path fill="#FEFEFE" mask="url(#p)" d="M-10.212 3.01l74.077-8.374 7.84 69.504-74.078 8.375z"/></g><path d="M382.74 18.554c1.36-3.312 1.588-7.086 1.583-10.963v-.404c.005-3.029.06-5.923-2.211-6.71-2.683-.931-6.667 1.065-7.835 2.98-2.168 3.557-2.871 7.064-3.326 10.922-.352 2.976 10.901 6.332 11.789 4.175" fill="#FEFEFE"/><g transform="rotate(-4 198.863 -5297.116)"><mask id="r" fill="#fff"><use xlink:href="#q"/></mask><path fill="#FEFEFE" mask="url(#r)" d="M-4.79-1.429l21.985-2.574 2.875 26.396-21.986 2.574z"/></g><path d="M379.636 78.336c3.267-3.746 8.323-16.315 11.941-26.735-.329-.901-1.128-1.305-2.284-1.332-1.572.14-2.829.702-3.683 1.805-3.95 9.335-10.958 23.67-12.263 23.602-1.682-.086 2.08-30.71 6.475-47.715.182-.894-.045-1.529-.389-2.09-.665-1.091-1.963-2.03-3.536-2.598-1.288-.465-4.769-.826-5.94.405-8.056 8.472-10.93 38.03-6.803 52.407 1.14 3.973 4.592 5.913 7.415 5.982 3.857.095 7.108-1.487 9.067-3.731" fill="#FEFEFE"/><g transform="rotate(-4 520.362 -5121.98)"><mask id="t" fill="#fff"><use xlink:href="#s"/></mask><path fill="#FEFEFE" mask="url(#t)" d="M-8.605-.674l39.116-4.428 7.346 65.234-39.116 4.43z"/></g><path d="M424.471 13.828c1.166-1.245 2.625-.647 3.913-.174 1.57.578 2.866 1.53 3.531 2.637.344.57.571 1.214.39 2.12-4.367 17.236-8.087 48.28-6.408 48.37 1.302.07 8.28-14.455 12.211-23.915.851-1.118 2.106-1.686 3.674-1.827 1.154.029 1.951.44 2.28 1.353-3.598 10.561-8.63 23.299-11.886 27.093-1.952 2.274-5.195 3.874-9.045 3.773-2.817-.073-5.625-1.662-6.477-5.762-.407-1.96-.673-4.674-.792-7.847-6.77 9.265-14.777 21.202-24.973 18.395-10.607-2.92-3.49-41.806 4.194-54.747 2.649-4.462 10.633-8.654 16.7-8.303 3.717.216 6.744 1.946 9.212 4.921 1.003-2.572 2.157-4.678 3.476-6.087m-9.762 9.71c-8.872-4.627-21.215 43.675-15.326 46.049 3.228 1.3 10.228-9.122 16.543-19.895.298-6.679 1.083-13.973 2.405-20.362-1.289-2.777-2.67-5.294-3.622-5.791" fill="#FEFEFE"/><g transform="rotate(-4 422.453 -5462.615)"><mask id="v" fill="#fff"><use xlink:href="#u"/></mask><path fill="#FEFEFE" mask="url(#v)" d="M-4.698-2.151l67.201-1.695 1.729 68.743-67.202 1.695z"/></g><g fill="#FEFEFE"><path d="M222.042 146.997l4.93 8.055 1.46-9.304-1.467.287-.309-1.596 4.847-.947.31 1.595-1.518.297-2.002 12.15-1.762.343-6.46-10.494-1.569.306-.309-1.595 5.007-.979.31 1.596zM237.812 144.02l-.06.01-.908 5.576 3.624-.62-2.656-4.966zm1.744-.298l5.1 9.097 1.423-.244.272 1.602-5.028.862-.272-1.603 1.668-.284-1.487-2.746-4.63.794-.496 3.084 1.618-.277.272 1.602-5.062.867-.273-1.602 1.54-.264 1.79-10.278-1.531.263-.265-1.551 6.63-1.136.262 1.551-1.53.263zM255.282 141.336l-1.827.268-.235-1.607 5.252-.772.235 1.608-1.879.276 1.668 11.419-1.99.292-7.75-10.114 1.353 9.272 1.835-.27.235 1.609-5.243.77-.234-1.608 1.827-.269-1.412-9.674-1.828.27-.235-1.61 4.368-.641 7.087 9.189zM263.115 140.283l1.262 9.695 1.397-.183.21 1.611-4.726.62-.21-1.612 1.387-.182-1.261-9.695-1.389.181-.209-1.61 4.726-.62.21 1.612zM274.938 142.004l-.366-3.116-2.653.312 1.137 9.711 1.673-.197.188 1.614-5.254.619-.189-1.615 1.638-.192-1.137-9.71-2.635.309.364 3.117-1.586.186-.554-4.73 10.406-1.225.553 4.73zM280.93 138.208l3.215 3.719 2.21-4.259-1.605.16-.16-1.617 5.144-.512.16 1.618-1.683.167-3.067 5.804.424 4.284 1.768-.176.162 1.617-5.444.541-.16-1.617 1.734-.172-.425-4.284-4.376-5.064-1.572.156-.161-1.617 5.29-.526.16 1.618zM303.762 138.572c-.061-.81-.344-1.386-.846-1.726-.503-.34-1.327-.468-2.474-.38l-1.344.102.365 4.817 1.207-.09c.793-.061 1.421-.183 1.884-.365.462-.183.791-.461.988-.837.195-.377.269-.884.22-1.521m1.98-.107c.09 1.183-.199 2.17-.867 2.96-.67.792-1.87 1.259-3.598 1.4l-1.696.13.255 3.362 1.679-.128.123 1.62-5.241.399-.124-1.621 1.61-.123-.739-9.749-1.609.123-.123-1.62 4.804-.366c1.296-.097 2.336-.035 3.119.189.783.224 1.363.612 1.738 1.164.375.552.597 1.305.67 2.26M310.066 135.793l.603 9.759 4.243-.262-.248-4.03 1.602-.098.35 5.651-9.464.584-.1-1.622 1.662-.103-.602-9.757-1.662.101-.1-1.622 5.279-.325.101 1.623zM323.781 134.998l-.06.003-1.583 5.42 3.671-.167-2.028-5.256zm1.767-.08l3.95 9.659 1.441-.066.076 1.624-5.097.232-.074-1.624 1.69-.076-1.14-2.908-4.692.213-.869 2.999 1.639-.075.074 1.624-5.13.234-.075-1.624 1.562-.071 3.033-9.977-1.552.07-.074-1.57 6.72-.307.07 1.572-1.552.071zM339.058 137.636l-.099-3.136-2.67.082.306 9.772 1.682-.052.051 1.625-5.289.162-.05-1.625 1.648-.05-.305-9.772-2.652.081.098 3.137-1.597.048-.148-4.76 10.473-.321.148 4.76zM350.723 136.458l-.036-2.178-5.54.088.065 3.88 4.819-.076.027 1.625-4.819.076.072 4.27 5.538-.088-.039-2.377 1.597-.025.067 4.002-10.76.17-.027-1.624 1.666-.026-.163-9.776-1.666.027-.028-1.625 10.76-.172.064 3.804zM365.045 134.2h-.06l-1.857 5.33 3.676.023-1.759-5.352zm1.77.012l3.453 9.85 1.443.008-.01 1.625-5.101-.031.008-1.625 1.693.01-.99-2.962-4.698-.03-1.02 2.951 1.641.01-.01 1.625-5.135-.032.008-1.624 1.564.01 3.537-9.807-1.554-.01.007-1.574 6.725.042-.008 1.573-1.553-.01zM380.528 136.841c.017-.811-.21-1.412-.677-1.8-.467-.387-1.276-.593-2.427-.618l-1.348-.029-.099 4.83 1.212.028c.795.016 1.432-.043 1.91-.18.479-.137.833-.383 1.064-.738.23-.355.351-.853.365-1.493m1.983.087c-.025 1.187-.408 2.14-1.15 2.862-.743.723-1.98 1.07-3.716 1.044l-1.7-.036-.067 3.37 1.681.037-.032 1.624-5.255-.113.033-1.625 1.613.035.2-9.775-1.615-.034.035-1.625 4.817.104c1.3.028 2.327.191 3.086.49.758.299 1.298.742 1.619 1.328.319.586.47 1.357.451 2.314M391.492 137.19c.026-.813-.192-1.415-.653-1.809-.463-.394-1.27-.61-2.42-.65l-1.348-.048-.161 4.83 1.211.041c.795.028 1.432-.023 1.912-.153s.839-.372 1.073-.725c.235-.352.363-.847.386-1.487m1.98.113c-.039 1.186-.435 2.136-1.186 2.847-.752.712-1.995 1.043-3.729.995l-1.7-.06-.112 3.37 1.682.059-.054 1.623-5.254-.183.055-1.624 1.614.056.327-9.77-1.614-.056.054-1.625 4.816.168c1.3.045 2.325.223 3.08.532.755.308 1.289.757 1.6 1.348.313.59.454 1.364.421 2.32M398.027 135.117l-.45 9.766 4.246.203.186-4.033 1.605.077-.26 5.656-9.473-.452.076-1.623 1.664.08.45-9.766-1.664-.08.075-1.623 5.285.252-.075 1.623zM408.466 135.664l-.544 9.76 1.405.082-.09 1.622-4.758-.273.09-1.623 1.397.08.544-9.76-1.397-.08.092-1.623 4.758.273-.09 1.622zM422.146 136.377l.096-1.432 1.647.115-.284 4.165-1.678-.117c-.367-.863-.903-1.553-1.607-2.07a4.475 4.475 0 00-2.379-.868c-.85-.059-1.626.114-2.324.519-.7.405-1.262.972-1.687 1.702a5.418 5.418 0 00-.726 2.397 5.335 5.335 0 00.418 2.524c.34.787.837 1.43 1.492 1.932.653.502 1.4.783 2.242.84a4.266 4.266 0 002.805-.76c.838-.581 1.478-1.442 1.923-2.584l1.586.995c-.545 1.418-1.408 2.486-2.59 3.203-1.183.718-2.532 1.024-4.052.918-1.251-.087-2.341-.466-3.272-1.133a6.282 6.282 0 01-2.102-2.582c-.47-1.052-.665-2.185-.582-3.398.09-1.316.444-2.47 1.066-3.461a5.959 5.959 0 012.444-2.234c1.01-.498 2.141-.704 3.39-.617a6.258 6.258 0 012.296.585 6.647 6.647 0 011.878 1.36M431.78 137.303l-.06-.006-2.271 5.166 3.663.316-1.332-5.476zm1.762.152l2.667 10.093 1.439.124-.137 1.62-5.083-.439.135-1.619 1.687.145-.753-3.03-4.681-.404-1.25 2.859 1.635.14-.136 1.62-5.118-.44.137-1.62 1.557.134 4.298-9.494-1.548-.133.131-1.567 6.7.576-.13 1.568-1.55-.133zM446.567 141.906l.305-3.123-2.658-.265-.95 9.729 1.675.167-.158 1.617-5.265-.525.158-1.618 1.641.164.95-9.728-2.641-.264-.305 3.122-1.59-.159.463-4.739 10.428 1.04-.463 4.74zM453.008 139.452l-1.05 9.719 1.4.154-.174 1.615-4.738-.522.175-1.616 1.39.154 1.05-9.718-1.392-.154.173-1.616 4.74.523-.175 1.616zM461.41 150.38c.88.108 1.695-.026 2.444-.405a4.666 4.666 0 001.83-1.647c.47-.721.756-1.515.861-2.385a5.232 5.232 0 00-.305-2.54 4.629 4.629 0 00-1.442-1.998c-.651-.523-1.421-.84-2.309-.95-.869-.106-1.665.014-2.387.357a4.275 4.275 0 00-1.768 1.572c-.457.706-.74 1.516-.85 2.43-.117.973-.039 1.862.238 2.668.275.806.73 1.462 1.368 1.97.637.508 1.41.817 2.32.929m7.25-4.179c-.158 1.316-.587 2.45-1.287 3.404a6.054 6.054 0 01-2.677 2.08c-1.085.432-2.275.568-3.571.41-1.279-.157-2.38-.587-3.305-1.29a6.141 6.141 0 01-2.034-2.696c-.431-1.094-.568-2.285-.414-3.572.153-1.276.572-2.38 1.259-3.311a6.105 6.105 0 012.621-2.06c1.063-.442 2.229-.585 3.496-.43 1.318.163 2.451.596 3.4 1.301a6.19 6.19 0 012.079 2.671c.44 1.076.584 2.24.433 3.493M480.644 142.973l-1.829-.255.221-1.61 5.258.736-.22 1.61-1.881-.264-1.57 11.43-1.99-.279-4.637-11.889-1.275 9.282 1.837.257-.22 1.61-5.249-.735.22-1.61 1.83.255 1.33-9.683-1.83-.256.22-1.61 4.374.613 4.256 10.814zM491.905 143.85l.134-.88 1.561.24-.592 3.905-1.561-.24.135-.889c-.511-1.105-1.34-1.746-2.49-1.924-.702-.108-1.26-.049-1.678.178-.416.228-.666.609-.746 1.144-.078.513.039.93.353 1.253.313.322.82.634 1.522.935l1.442.633c.918.404 1.6.857 2.048 1.357.45.501.716 1 .8 1.496a5.165 5.165 0 01-.006 1.617c-.178 1.168-.68 2.037-1.508 2.61-.829.57-1.852.762-3.067.575-1.162-.18-2.152-.77-2.974-1.771l-.162 1.068-1.596-.247.711-4.691 1.596.247-.171 1.136c.55 1.531 1.438 2.391 2.667 2.581.718.111 1.304.011 1.757-.301.452-.312.73-.806.834-1.485.14-.922-.409-1.663-1.644-2.221l-1.529-.7c-1.099-.508-1.88-1.086-2.344-1.735-.463-.648-.625-1.434-.485-2.357.171-1.133.637-1.96 1.398-2.482.759-.52 1.724-.69 2.896-.51 1.019.158 1.919.644 2.699 1.458"/></g></g></svg>